<svg width="700" height="345" viewBox="0 0 700 345" fill="none" xmlns="http://www.w3.org/2000/svg">
<rect x="11" y="3" width="17" height="209" fill="#595959"/>
<rect x="125" y="99" width="17" height="100" transform="rotate(90 125 99)" fill="#595959"/>
<rect x="125" y="3" width="17" height="209" fill="#595959"/>
<rect x="201" y="3" width="17" height="209" fill="#595959"/>
<path d="M319 2H327.5H336L292.5 214H274L319 2Z" fill="#0479C7"/>
<g clip-path="url(#clip0_3_192)">
<path d="M428.306 68.7515C428.306 102.126 399.64 129.751 363.556 129.751C327.471 129.751 298.806 102.126 298.806 68.7515C298.806 35.3773 327.471 7.75146 363.556 7.75147C399.64 7.75147 428.306 35.3773 428.306 68.7515Z" stroke="#595959" stroke-width="12.5"/>
</g>
<rect x="474" y="6" width="120" height="14.5" fill="#595959"/>
<rect x="474" y="197.2" width="120" height="14.5" fill="#595959"/>
<rect x="474" y="199" width="182" height="16" transform="rotate(-90 474 199)" fill="#595959"/>
<path d="M683 2H691.5H700L656.5 214H638L683 2Z" fill="#0479C7"/>
<rect x="361.57" y="37" width="11" height="66" fill="#0479C7"/>
<rect x="335" y="57.4373" width="11" height="66.0576" transform="rotate(-60 335 57.4373)" fill="#0479C7"/>
<rect x="394.729" y="47" width="11" height="67.0047" transform="rotate(60 394.729 47)" fill="#0479C7"/>
<rect x="534.57" y="77" width="11" height="66" fill="#0479C7"/>
<rect x="508" y="97.4373" width="11" height="66.0576" transform="rotate(-60 508 97.4373)" fill="#0479C7"/>
<rect x="567.729" y="87" width="11" height="67.0047" transform="rotate(60 567.729 87)" fill="#0479C7"/>
<path d="M23.088 282.48H23.348C23.5907 282.48 23.816 282.393 24.024 282.22C24.232 282.012 24.4053 281.769 24.544 281.492C24.7173 281.18 24.8387 280.868 24.908 280.556C24.9773 280.209 25.012 279.897 25.012 279.62V265.476H8.372V279.62C8.372 279.897 8.40667 280.209 8.476 280.556C8.54533 280.868 8.64933 281.163 8.788 281.44C8.92667 281.717 9.08267 281.96 9.256 282.168C9.464 282.376 9.70667 282.48 9.984 282.48H10.244V283H2.964V282.48H3.224C3.46667 282.48 3.692 282.393 3.9 282.22C4.108 282.012 4.28133 281.769 4.42 281.492C4.59333 281.18 4.71467 280.868 4.784 280.556C4.85333 280.209 4.888 279.897 4.888 279.62V251.904C4.888 251.661 4.85333 251.384 4.784 251.072C4.71467 250.76 4.61067 250.465 4.472 250.188C4.33333 249.911 4.16 249.685 3.952 249.512C3.744 249.304 3.50133 249.2 3.224 249.2H2.964V248.68H10.244V249.2H9.984C9.70667 249.2 9.464 249.304 9.256 249.512C9.048 249.685 8.87467 249.911 8.736 250.188C8.632 250.465 8.54533 250.76 8.476 251.072C8.40667 251.384 8.372 251.661 8.372 251.904V263.656H25.012V251.904C25.012 251.661 24.9773 251.384 24.908 251.072C24.8387 250.76 24.7347 250.465 24.596 250.188C24.4573 249.911 24.284 249.685 24.076 249.512C23.868 249.304 23.6253 249.2 23.348 249.2H23.088V248.68H30.368V249.2H30.108C29.8307 249.2 29.588 249.304 29.38 249.512C29.172 249.685 28.9987 249.911 28.86 250.188C28.756 250.465 28.6693 250.76 28.6 251.072C28.5307 251.384 28.496 251.661 28.496 251.904V279.62C28.496 279.897 28.5307 280.209 28.6 280.556C28.704 280.868 28.8253 281.163 28.964 281.44C29.1027 281.717 29.2587 281.96 29.432 282.168C29.64 282.376 29.8653 282.48 30.108 282.48H30.368V283H23.088V282.48ZM48.4157 283V280.348L48.1557 280.608C47.289 281.475 46.2837 282.151 45.1397 282.636C44.0303 283.121 42.6783 283.364 41.0837 283.364C39.8703 283.364 38.8303 283.225 37.9637 282.948C37.097 282.671 36.3863 282.289 35.8317 281.804C35.277 281.284 34.861 280.695 34.5837 280.036C34.341 279.377 34.2197 278.684 34.2197 277.956C34.2197 276.777 34.5317 275.737 35.1557 274.836C35.8143 273.935 36.7503 273.137 37.9637 272.444C39.177 271.751 40.6503 271.127 42.3837 270.572C44.1517 269.983 46.1623 269.411 48.4157 268.856C48.3463 267.504 48.069 266.412 47.5837 265.58C47.0983 264.748 46.5263 264.107 45.8677 263.656C45.209 263.171 44.5157 262.859 43.7877 262.72C43.0597 262.547 42.4357 262.46 41.9157 262.46C41.0143 262.46 40.217 262.599 39.5237 262.876C38.865 263.153 38.2757 263.517 37.7557 263.968C37.2703 264.384 36.8543 264.852 36.5077 265.372C36.161 265.857 35.8837 266.325 35.6757 266.776H35.2077V262.98C35.485 262.945 35.745 262.859 35.9877 262.72C36.2303 262.581 36.525 262.443 36.8717 262.304C37.3917 262.096 38.1023 261.801 39.0037 261.42C39.905 261.004 41.1703 260.796 42.7997 260.796C44.7063 260.796 46.249 261.039 47.4277 261.524C48.6063 262.009 49.5077 262.651 50.1317 263.448C50.7903 264.245 51.2237 265.164 51.4317 266.204C51.6397 267.209 51.7437 268.249 51.7437 269.324V279.62C51.7437 280.313 51.8997 280.972 52.2117 281.596C52.5237 282.185 52.9397 282.48 53.4597 282.48V283H48.4157ZM48.4157 278.06V270.624L47.8957 270.728C47.0637 270.936 46.041 271.213 44.8277 271.56C43.649 271.907 42.5223 272.357 41.4477 272.912C40.373 273.467 39.4543 274.125 38.6917 274.888C37.929 275.651 37.5477 276.535 37.5477 277.54C37.5477 278.649 37.9983 279.568 38.8997 280.296C39.801 281.024 40.9797 281.388 42.4357 281.388C43.5797 281.388 44.585 281.145 45.4517 280.66C46.3183 280.14 47.1157 279.481 47.8437 278.684L48.4157 278.06ZM79.3573 279.62C79.3573 279.897 79.3919 280.209 79.4613 280.556C79.5306 280.868 79.6346 281.163 79.7733 281.44C79.9466 281.717 80.1199 281.96 80.2933 282.168C80.5013 282.376 80.7439 282.48 81.0213 282.48V283H74.3133V282.48C74.5559 282.48 74.7813 282.376 74.9893 282.168C75.1973 281.96 75.3706 281.717 75.5093 281.44C75.6826 281.163 75.8039 280.868 75.8733 280.556C75.9426 280.209 75.9773 279.897 75.9773 279.62V269.948C75.9773 268.7 75.8039 267.608 75.4573 266.672C75.1106 265.736 74.6426 264.956 74.0533 264.332C73.4639 263.708 72.7879 263.257 72.0253 262.98C71.2973 262.668 70.5519 262.512 69.7893 262.512C69.0266 262.512 68.2639 262.668 67.5013 262.98C66.7733 263.292 66.1146 263.708 65.5253 264.228C64.9706 264.713 64.5026 265.303 64.1213 265.996C63.7746 266.655 63.6013 267.348 63.6013 268.076V279.62C63.6013 279.897 63.6359 280.209 63.7053 280.556C63.7746 280.868 63.8786 281.163 64.0173 281.44C64.1906 281.717 64.3639 281.96 64.5373 282.168C64.7453 282.376 64.9879 282.48 65.2653 282.48V283H58.5053V282.48C58.7479 282.48 58.9733 282.376 59.1813 282.168C59.3893 281.96 59.5626 281.717 59.7013 281.44C59.8746 281.163 59.9959 280.868 60.0653 280.556C60.1346 280.209 60.1693 279.897 60.1693 279.62V265.268C60.1693 264.679 60.0826 264.124 59.9093 263.604C59.7359 263.049 59.2333 262.755 58.4013 262.72V262.252L63.6013 260.588V263.448C63.8439 263.171 64.1559 262.876 64.5373 262.564C64.9186 262.217 65.3693 261.905 65.8893 261.628C66.4439 261.316 67.0679 261.073 67.7613 260.9C68.4893 260.692 69.3386 260.588 70.3093 260.588C71.9386 260.588 73.3253 260.865 74.4693 261.42C75.6133 261.975 76.5493 262.703 77.2773 263.604C78.0053 264.471 78.5253 265.441 78.8373 266.516C79.1839 267.556 79.3573 268.579 79.3573 269.584V279.62ZM94.4491 290.436C93.9637 291.892 93.3397 292.88 92.5771 293.4C91.8491 293.92 91.0864 294.18 90.2891 294.18C89.7691 294.18 89.3011 294.111 88.8851 293.972C88.5037 293.833 88.1571 293.66 87.8451 293.452C87.5677 293.279 87.3424 293.105 87.1691 292.932C86.9957 292.759 86.8917 292.62 86.8571 292.516L88.5731 288.304C88.7464 288.928 88.9197 289.396 89.0931 289.708C89.2664 290.055 89.5091 290.367 89.8211 290.644C90.1331 290.921 90.5144 291.06 90.9651 291.06C91.7971 291.06 92.4557 290.453 92.9411 289.24L95.4891 282.844L87.1171 263.916C86.9437 263.5 86.6491 263.032 86.2331 262.512C85.8517 261.957 85.3144 261.68 84.6211 261.68V261.16H91.4851V261.68C91.3464 261.68 91.1731 261.801 90.9651 262.044C90.7571 262.287 90.6531 262.599 90.6531 262.98C90.6531 263.292 90.7224 263.569 90.8611 263.812L97.2571 278.528L103.393 263.5C103.497 263.257 103.549 263.032 103.549 262.824C103.549 262.477 103.428 262.2 103.185 261.992C102.977 261.784 102.752 261.68 102.509 261.68V261.16H107.553V261.68C106.998 261.68 106.513 261.923 106.097 262.408C105.716 262.859 105.404 263.379 105.161 263.968L94.4491 290.436ZM124.486 283V280.348L124.226 280.608C123.359 281.475 122.354 282.151 121.21 282.636C120.101 283.121 118.749 283.364 117.154 283.364C115.941 283.364 114.901 283.225 114.034 282.948C113.167 282.671 112.457 282.289 111.902 281.804C111.347 281.284 110.931 280.695 110.654 280.036C110.411 279.377 110.29 278.684 110.29 277.956C110.29 276.777 110.602 275.737 111.226 274.836C111.885 273.935 112.821 273.137 114.034 272.444C115.247 271.751 116.721 271.127 118.454 270.572C120.222 269.983 122.233 269.411 124.486 268.856C124.417 267.504 124.139 266.412 123.654 265.58C123.169 264.748 122.597 264.107 121.938 263.656C121.279 263.171 120.586 262.859 119.858 262.72C119.13 262.547 118.506 262.46 117.986 262.46C117.085 262.46 116.287 262.599 115.594 262.876C114.935 263.153 114.346 263.517 113.826 263.968C113.341 264.384 112.925 264.852 112.578 265.372C112.231 265.857 111.954 266.325 111.746 266.776H111.278V262.98C111.555 262.945 111.815 262.859 112.058 262.72C112.301 262.581 112.595 262.443 112.942 262.304C113.462 262.096 114.173 261.801 115.074 261.42C115.975 261.004 117.241 260.796 118.87 260.796C120.777 260.796 122.319 261.039 123.498 261.524C124.677 262.009 125.578 262.651 126.202 263.448C126.861 264.245 127.294 265.164 127.502 266.204C127.71 267.209 127.814 268.249 127.814 269.324V279.62C127.814 280.313 127.97 280.972 128.282 281.596C128.594 282.185 129.01 282.48 129.53 282.48V283H124.486ZM124.486 278.06V270.624L123.966 270.728C123.134 270.936 122.111 271.213 120.898 271.56C119.719 271.907 118.593 272.357 117.518 272.912C116.443 273.467 115.525 274.125 114.762 274.888C113.999 275.651 113.618 276.535 113.618 277.54C113.618 278.649 114.069 279.568 114.97 280.296C115.871 281.024 117.05 281.388 118.506 281.388C119.65 281.388 120.655 281.145 121.522 280.66C122.389 280.14 123.186 279.481 123.914 278.684L124.486 278.06ZM155.428 279.62C155.428 279.897 155.462 280.209 155.532 280.556C155.601 280.868 155.705 281.163 155.844 281.44C156.017 281.717 156.19 281.96 156.364 282.168C156.572 282.376 156.814 282.48 157.092 282.48V283H150.384V282.48C150.626 282.48 150.852 282.376 151.06 282.168C151.268 281.96 151.441 281.717 151.58 281.44C151.753 281.163 151.874 280.868 151.944 280.556C152.013 280.209 152.048 279.897 152.048 279.62V269.948C152.048 268.7 151.874 267.608 151.528 266.672C151.181 265.736 150.713 264.956 150.124 264.332C149.534 263.708 148.858 263.257 148.096 262.98C147.368 262.668 146.622 262.512 145.86 262.512C145.097 262.512 144.334 262.668 143.572 262.98C142.844 263.292 142.185 263.708 141.596 264.228C141.041 264.713 140.573 265.303 140.192 265.996C139.845 266.655 139.672 267.348 139.672 268.076V279.62C139.672 279.897 139.706 280.209 139.776 280.556C139.845 280.868 139.949 281.163 140.088 281.44C140.261 281.717 140.434 281.96 140.608 282.168C140.816 282.376 141.058 282.48 141.336 282.48V283H134.576V282.48C134.818 282.48 135.044 282.376 135.252 282.168C135.46 281.96 135.633 281.717 135.772 281.44C135.945 281.163 136.066 280.868 136.136 280.556C136.205 280.209 136.24 279.897 136.24 279.62V265.268C136.24 264.679 136.153 264.124 135.98 263.604C135.806 263.049 135.304 262.755 134.472 262.72V262.252L139.672 260.588V263.448C139.914 263.171 140.226 262.876 140.608 262.564C140.989 262.217 141.44 261.905 141.96 261.628C142.514 261.316 143.138 261.073 143.832 260.9C144.56 260.692 145.409 260.588 146.38 260.588C148.009 260.588 149.396 260.865 150.54 261.42C151.684 261.975 152.62 262.703 153.348 263.604C154.076 264.471 154.596 265.441 154.908 266.516C155.254 267.556 155.428 268.579 155.428 269.584V279.62ZM173.015 292.672C174.055 292.672 175.043 292.568 175.979 292.36C176.915 292.187 177.73 291.927 178.423 291.58C179.151 291.233 179.723 290.817 180.139 290.332C180.555 289.847 180.763 289.327 180.763 288.772C180.763 288.183 180.469 287.68 179.879 287.264C179.325 286.848 178.562 286.484 177.591 286.172C176.621 285.86 175.494 285.583 174.211 285.34C172.929 285.132 171.594 284.907 170.207 284.664L167.555 284.196C166.758 284.82 166.203 285.479 165.891 286.172C165.579 286.865 165.423 287.472 165.423 287.992C165.423 288.72 165.614 289.361 165.995 289.916C166.411 290.505 166.949 291.008 167.607 291.424C168.301 291.84 169.098 292.152 169.999 292.36C170.935 292.568 171.941 292.672 173.015 292.672ZM175.875 282.272C177.262 282.48 178.406 282.757 179.307 283.104C180.243 283.451 180.989 283.849 181.543 284.3C182.098 284.785 182.479 285.305 182.687 285.86C182.895 286.449 182.999 287.073 182.999 287.732C182.999 288.911 182.67 289.933 182.011 290.8C181.387 291.667 180.555 292.377 179.515 292.932C178.51 293.521 177.349 293.955 176.031 294.232C174.749 294.509 173.431 294.648 172.079 294.648C170.762 294.648 169.497 294.509 168.283 294.232C167.07 293.989 165.995 293.608 165.059 293.088C164.123 292.568 163.378 291.909 162.823 291.112C162.269 290.349 161.991 289.465 161.991 288.46C161.991 287.559 162.269 286.692 162.823 285.86C163.378 285.063 164.279 284.265 165.527 283.468C164.314 282.844 163.378 282.012 162.719 280.972C162.095 279.897 161.783 278.805 161.783 277.696C161.783 277.037 161.939 276.396 162.251 275.772C162.563 275.113 163.066 274.507 163.759 273.952C163.17 273.259 162.754 272.565 162.511 271.872C162.269 271.179 162.147 270.433 162.147 269.636C162.147 268.388 162.407 267.227 162.927 266.152C163.447 265.077 164.158 264.141 165.059 263.344C165.961 262.547 167.018 261.923 168.231 261.472C169.445 261.021 170.745 260.796 172.131 260.796C173.587 260.796 174.974 261.056 176.291 261.576C177.609 262.061 178.718 262.703 179.619 263.5H183.363V265.372H180.971C181.214 265.892 181.457 266.516 181.699 267.244C181.942 267.937 182.063 268.665 182.063 269.428C182.063 270.537 181.803 271.595 181.283 272.6C180.763 273.571 180.035 274.437 179.099 275.2C178.198 275.928 177.123 276.517 175.875 276.968C174.662 277.384 173.362 277.592 171.975 277.592C170.693 277.592 169.445 277.401 168.231 277.02C167.018 276.639 165.943 276.084 165.007 275.356C164.626 275.599 164.366 275.911 164.227 276.292C164.089 276.639 164.019 277.003 164.019 277.384C164.019 278.493 164.522 279.36 165.527 279.984C166.533 280.573 167.815 280.989 169.375 281.232L175.875 282.272ZM171.507 262.616C170.675 262.616 169.895 262.772 169.167 263.084C168.439 263.361 167.798 263.76 167.243 264.28C166.689 264.8 166.238 265.441 165.891 266.204C165.579 266.932 165.423 267.764 165.423 268.7C165.423 269.844 165.649 270.867 166.099 271.768C166.585 272.669 167.191 273.415 167.919 274.004C168.647 274.593 169.445 275.044 170.311 275.356C171.213 275.668 172.062 275.824 172.859 275.824C173.726 275.824 174.506 275.668 175.199 275.356C175.927 275.009 176.551 274.559 177.071 274.004C177.591 273.415 177.99 272.739 178.267 271.976C178.545 271.213 178.683 270.416 178.683 269.584C178.683 268.544 178.475 267.591 178.059 266.724C177.643 265.857 177.089 265.129 176.395 264.54C175.737 263.916 174.974 263.448 174.107 263.136C173.241 262.789 172.374 262.616 171.507 262.616ZM201.661 248.68H209.097V249.2H208.837C208.595 249.2 208.369 249.304 208.161 249.512C207.953 249.685 207.78 249.911 207.641 250.188C207.503 250.431 207.381 250.725 207.277 251.072C207.208 251.384 207.173 251.661 207.173 251.904V279.62C207.173 279.897 207.208 280.209 207.277 280.556C207.347 280.868 207.451 281.163 207.589 281.44C207.763 281.717 207.936 281.96 208.109 282.168C208.317 282.376 208.56 282.48 208.837 282.48H209.097V283H201.661V282.48H201.921C202.199 282.48 202.441 282.393 202.649 282.22C202.857 282.012 203.031 281.769 203.169 281.492C203.343 281.18 203.464 280.868 203.533 280.556C203.603 280.209 203.637 279.897 203.637 279.62V251.904C203.637 251.661 203.603 251.384 203.533 251.072C203.464 250.76 203.343 250.465 203.169 250.188C203.031 249.911 202.857 249.685 202.649 249.512C202.441 249.304 202.199 249.2 201.921 249.2H201.661V248.68ZM235.002 279.62C235.002 279.897 235.036 280.209 235.106 280.556C235.175 280.868 235.279 281.163 235.418 281.44C235.591 281.717 235.764 281.96 235.938 282.168C236.146 282.376 236.388 282.48 236.666 282.48V283H229.958V282.48C230.2 282.48 230.426 282.376 230.634 282.168C230.842 281.96 231.015 281.717 231.154 281.44C231.327 281.163 231.448 280.868 231.518 280.556C231.587 280.209 231.622 279.897 231.622 279.62V269.948C231.622 268.7 231.448 267.608 231.102 266.672C230.755 265.736 230.287 264.956 229.698 264.332C229.108 263.708 228.432 263.257 227.67 262.98C226.942 262.668 226.196 262.512 225.434 262.512C224.671 262.512 223.908 262.668 223.146 262.98C222.418 263.292 221.759 263.708 221.17 264.228C220.615 264.713 220.147 265.303 219.766 265.996C219.419 266.655 219.246 267.348 219.246 268.076V279.62C219.246 279.897 219.28 280.209 219.35 280.556C219.419 280.868 219.523 281.163 219.662 281.44C219.835 281.717 220.008 281.96 220.182 282.168C220.39 282.376 220.632 282.48 220.91 282.48V283H214.15V282.48C214.392 282.48 214.618 282.376 214.826 282.168C215.034 281.96 215.207 281.717 215.346 281.44C215.519 281.163 215.64 280.868 215.71 280.556C215.779 280.209 215.814 279.897 215.814 279.62V265.268C215.814 264.679 215.727 264.124 215.554 263.604C215.38 263.049 214.878 262.755 214.046 262.72V262.252L219.246 260.588V263.448C219.488 263.171 219.8 262.876 220.182 262.564C220.563 262.217 221.014 261.905 221.534 261.628C222.088 261.316 222.712 261.073 223.406 260.9C224.134 260.692 224.983 260.588 225.954 260.588C227.583 260.588 228.97 260.865 230.114 261.42C231.258 261.975 232.194 262.703 232.922 263.604C233.65 264.471 234.17 265.441 234.482 266.516C234.828 267.556 235.002 268.579 235.002 269.584V279.62ZM246.61 262.928V279.62C246.61 279.897 246.644 280.209 246.714 280.556C246.783 280.868 246.887 281.163 247.026 281.44C247.199 281.717 247.372 281.96 247.546 282.168C247.754 282.376 247.996 282.48 248.274 282.48V283H241.514V282.48C241.756 282.48 241.982 282.376 242.19 282.168C242.398 281.96 242.571 281.717 242.71 281.44C242.883 281.163 243.004 280.868 243.074 280.556C243.143 280.209 243.178 279.897 243.178 279.62V262.928H240.578V261.16H243.178V256.948C243.178 255.873 243.212 254.833 243.282 253.828C243.351 252.823 243.559 251.921 243.906 251.124C244.252 250.327 244.772 249.685 245.466 249.2C246.194 248.715 247.182 248.472 248.43 248.472C249.123 248.472 249.712 248.559 250.198 248.732C250.718 248.871 251.151 249.044 251.498 249.252C251.879 249.425 252.191 249.599 252.434 249.772C252.676 249.911 252.884 249.98 253.058 249.98V253.776H252.59C252.416 252.771 251.966 251.939 251.238 251.28C250.51 250.587 249.782 250.24 249.054 250.24C248.048 250.24 247.39 250.777 247.078 251.852C246.766 252.892 246.61 254.348 246.61 256.22V261.16H252.486V262.928H246.61ZM267.268 283.364C265.534 283.364 263.974 283.087 262.588 282.532C261.201 281.943 260.005 281.163 259 280.192C258.029 279.187 257.266 278.008 256.712 276.656C256.192 275.304 255.932 273.831 255.932 272.236C255.932 270.537 256.226 268.995 256.816 267.608C257.405 266.187 258.22 264.973 259.26 263.968C260.3 262.963 261.53 262.183 262.952 261.628C264.373 261.073 265.916 260.796 267.58 260.796C269.244 260.796 270.769 261.073 272.156 261.628C273.542 262.148 274.738 262.893 275.744 263.864C276.749 264.835 277.529 265.996 278.084 267.348C278.638 268.665 278.916 270.121 278.916 271.716C278.916 273.207 278.656 274.663 278.136 276.084C277.65 277.471 276.905 278.701 275.9 279.776C274.929 280.851 273.716 281.717 272.26 282.376C270.838 283.035 269.174 283.364 267.268 283.364ZM266.956 262.512C265.708 262.581 264.598 262.893 263.628 263.448C262.692 263.968 261.894 264.661 261.236 265.528C260.612 266.36 260.126 267.313 259.78 268.388C259.468 269.463 259.312 270.555 259.312 271.664C259.312 272.947 259.502 274.195 259.884 275.408C260.3 276.587 260.872 277.644 261.6 278.58C262.362 279.516 263.264 280.261 264.304 280.816C265.344 281.371 266.505 281.648 267.788 281.648C269.07 281.648 270.197 281.371 271.168 280.816C272.173 280.261 273.005 279.551 273.664 278.684C274.322 277.783 274.808 276.777 275.12 275.668C275.466 274.559 275.64 273.449 275.64 272.34C275.64 271.196 275.466 270.052 275.12 268.908C274.773 267.729 274.236 266.672 273.508 265.736C272.78 264.765 271.861 263.985 270.752 263.396C269.677 262.807 268.412 262.512 266.956 262.512ZM296.255 264.956C295.839 264.263 295.405 263.829 294.955 263.656C294.504 263.483 293.984 263.396 293.395 263.396C293.013 263.396 292.597 263.483 292.147 263.656C291.731 263.829 291.315 264.055 290.899 264.332C290.483 264.609 290.067 264.921 289.651 265.268C289.269 265.58 288.94 265.875 288.663 266.152V279.672C288.663 279.949 288.697 280.244 288.767 280.556C288.836 280.868 288.94 281.18 289.079 281.492C289.252 281.769 289.425 282.012 289.599 282.22C289.807 282.393 290.049 282.48 290.327 282.48V283H283.567V282.48C283.809 282.48 284.035 282.393 284.243 282.22C284.451 282.012 284.624 281.769 284.763 281.492C284.936 281.18 285.057 280.868 285.127 280.556C285.196 280.244 285.231 279.949 285.231 279.672V265.164C285.231 264.679 285.075 264.193 284.763 263.708C284.451 263.223 284 262.911 283.411 262.772V262.356L288.663 260.796V263.916C288.975 263.535 289.304 263.171 289.651 262.824C289.997 262.443 290.379 262.113 290.795 261.836C291.245 261.524 291.731 261.281 292.251 261.108C292.771 260.9 293.377 260.796 294.071 260.796C294.556 260.796 295.18 260.9 295.943 261.108C296.705 261.316 297.329 261.541 297.815 261.784L296.255 264.956ZM334.366 279.62C334.366 279.897 334.401 280.209 334.47 280.556C334.539 280.868 334.643 281.163 334.782 281.44C334.921 281.717 335.077 281.96 335.25 282.168C335.458 282.376 335.701 282.48 335.978 282.48V283H329.218V282.48C329.495 282.48 329.738 282.376 329.946 282.168C330.154 281.96 330.327 281.717 330.466 281.44C330.639 281.163 330.761 280.868 330.83 280.556C330.899 280.209 330.934 279.897 330.934 279.62V268.388C330.934 267.591 330.813 266.828 330.57 266.1C330.362 265.372 330.033 264.748 329.582 264.228C329.131 263.673 328.577 263.24 327.918 262.928C327.259 262.581 326.514 262.408 325.682 262.408C324.746 262.408 323.931 262.633 323.238 263.084C322.579 263.5 322.025 264.02 321.574 264.644C321.158 265.268 320.846 265.909 320.638 266.568C320.43 267.192 320.326 267.712 320.326 268.128V279.62C320.326 279.897 320.361 280.209 320.43 280.556C320.499 280.868 320.603 281.163 320.742 281.44C320.915 281.717 321.089 281.96 321.262 282.168C321.47 282.376 321.713 282.48 321.99 282.48V283H315.282V282.48C315.525 282.48 315.75 282.376 315.958 282.168C316.166 281.96 316.339 281.717 316.478 281.44C316.651 281.163 316.773 280.868 316.842 280.556C316.911 280.209 316.946 279.897 316.946 279.62V268.076C316.946 267.244 316.79 266.481 316.478 265.788C316.201 265.06 315.802 264.453 315.282 263.968C314.797 263.483 314.225 263.101 313.566 262.824C312.942 262.547 312.301 262.408 311.642 262.408C310.741 262.408 309.943 262.581 309.25 262.928C308.591 263.275 308.037 263.708 307.586 264.228C307.17 264.748 306.841 265.32 306.598 265.944C306.39 266.533 306.286 267.105 306.286 267.66V279.62C306.286 279.897 306.321 280.209 306.39 280.556C306.459 280.868 306.563 281.163 306.702 281.44C306.875 281.717 307.049 281.96 307.222 282.168C307.43 282.376 307.673 282.48 307.95 282.48V283H301.242V282.48C301.485 282.48 301.71 282.376 301.918 282.168C302.126 281.96 302.299 281.717 302.438 281.44C302.611 281.163 302.733 280.868 302.802 280.556C302.871 280.209 302.906 279.897 302.906 279.62V265.736C302.906 265.459 302.889 265.147 302.854 264.8C302.819 264.453 302.75 264.124 302.646 263.812C302.542 263.5 302.369 263.24 302.126 263.032C301.883 262.824 301.554 262.72 301.138 262.72V262.252L306.286 260.536V263.188C306.806 262.599 307.517 262.027 308.418 261.472C309.354 260.917 310.567 260.64 312.058 260.64C313.029 260.64 313.895 260.779 314.658 261.056C315.421 261.333 316.079 261.697 316.634 262.148C317.223 262.564 317.726 263.049 318.142 263.604C318.558 264.159 318.905 264.696 319.182 265.216C319.459 264.696 319.789 264.176 320.17 263.656C320.551 263.101 321.002 262.599 321.522 262.148C322.077 261.697 322.718 261.333 323.446 261.056C324.209 260.779 325.093 260.64 326.098 260.64C328.039 260.64 329.565 260.987 330.674 261.68C331.783 262.373 332.598 263.205 333.118 264.176C333.673 265.147 334.019 266.169 334.158 267.244C334.297 268.284 334.366 269.168 334.366 269.896V279.62ZM355.033 283V280.348L354.773 280.608C353.906 281.475 352.901 282.151 351.757 282.636C350.648 283.121 349.296 283.364 347.701 283.364C346.488 283.364 345.448 283.225 344.581 282.948C343.714 282.671 343.004 282.289 342.449 281.804C341.894 281.284 341.478 280.695 341.201 280.036C340.958 279.377 340.837 278.684 340.837 277.956C340.837 276.777 341.149 275.737 341.773 274.836C342.432 273.935 343.368 273.137 344.581 272.444C345.794 271.751 347.268 271.127 349.001 270.572C350.769 269.983 352.78 269.411 355.033 268.856C354.964 267.504 354.686 266.412 354.201 265.58C353.716 264.748 353.144 264.107 352.485 263.656C351.826 263.171 351.133 262.859 350.405 262.72C349.677 262.547 349.053 262.46 348.533 262.46C347.632 262.46 346.834 262.599 346.141 262.876C345.482 263.153 344.893 263.517 344.373 263.968C343.888 264.384 343.472 264.852 343.125 265.372C342.778 265.857 342.501 266.325 342.293 266.776H341.825V262.98C342.102 262.945 342.362 262.859 342.605 262.72C342.848 262.581 343.142 262.443 343.489 262.304C344.009 262.096 344.72 261.801 345.621 261.42C346.522 261.004 347.788 260.796 349.417 260.796C351.324 260.796 352.866 261.039 354.045 261.524C355.224 262.009 356.125 262.651 356.749 263.448C357.408 264.245 357.841 265.164 358.049 266.204C358.257 267.209 358.361 268.249 358.361 269.324V279.62C358.361 280.313 358.517 280.972 358.829 281.596C359.141 282.185 359.557 282.48 360.077 282.48V283H355.033ZM355.033 278.06V270.624L354.513 270.728C353.681 270.936 352.658 271.213 351.445 271.56C350.266 271.907 349.14 272.357 348.065 272.912C346.99 273.467 346.072 274.125 345.309 274.888C344.546 275.651 344.165 276.535 344.165 277.54C344.165 278.649 344.616 279.568 345.517 280.296C346.418 281.024 347.597 281.388 349.053 281.388C350.197 281.388 351.202 281.145 352.069 280.66C352.936 280.14 353.733 279.481 354.461 278.684L355.033 278.06ZM370.166 262.928V275.46C370.166 276.361 370.184 277.176 370.218 277.904C370.253 278.632 370.34 279.239 370.478 279.724C370.617 280.209 370.825 280.591 371.102 280.868C371.38 281.111 371.761 281.232 372.246 281.232C372.974 281.232 373.65 280.885 374.274 280.192C374.933 279.499 375.349 278.667 375.522 277.696H375.99V281.492C375.678 281.492 375.418 281.596 375.21 281.804C374.933 282.047 374.534 282.307 374.014 282.584C373.529 282.861 372.784 283 371.778 283C370.53 283 369.56 282.757 368.866 282.272C368.173 281.787 367.67 281.145 367.358 280.348C367.046 279.551 366.856 278.667 366.786 277.696C366.752 276.725 366.734 275.737 366.734 274.732V262.928H363.822V261.16H366.734V256.532C366.734 255.943 366.648 255.405 366.474 254.92C366.336 254.4 365.833 254.123 364.966 254.088V253.568L370.166 251.904V261.16H375.99V262.928H370.166ZM380.627 283V282.48C380.904 282.48 381.147 282.376 381.355 282.168C381.563 281.96 381.736 281.717 381.875 281.44C382.013 281.163 382.117 280.868 382.187 280.556C382.256 280.209 382.291 279.897 382.291 279.62V265.216C382.291 264.627 382.204 264.072 382.031 263.552C381.857 262.997 381.355 262.703 380.523 262.668V262.2L385.723 260.536V279.62C385.723 279.897 385.757 280.209 385.827 280.556C385.896 280.868 386 281.163 386.139 281.44C386.277 281.717 386.451 281.96 386.659 282.168C386.867 282.376 387.109 282.48 387.387 282.48V283H380.627ZM380.887 255.544C380.887 254.851 381.112 254.261 381.563 253.776C382.048 253.291 382.637 253.048 383.331 253.048C384.024 253.048 384.613 253.291 385.099 253.776C385.584 254.261 385.827 254.851 385.827 255.544C385.827 256.237 385.584 256.809 385.099 257.26C384.613 257.711 384.024 257.936 383.331 257.936C382.637 257.936 382.048 257.711 381.563 257.26C381.112 256.809 380.887 256.237 380.887 255.544ZM403.869 283.364C402.136 283.364 400.576 283.087 399.189 282.532C397.803 281.943 396.607 281.163 395.601 280.192C394.631 279.187 393.868 278.008 393.313 276.656C392.793 275.304 392.533 273.831 392.533 272.236C392.533 270.537 392.828 268.995 393.417 267.608C394.007 266.187 394.821 264.973 395.861 263.968C396.901 262.963 398.132 262.183 399.553 261.628C400.975 261.073 402.517 260.796 404.181 260.796C405.845 260.796 407.371 261.073 408.757 261.628C410.144 262.148 411.34 262.893 412.345 263.864C413.351 264.835 414.131 265.996 414.685 267.348C415.24 268.665 415.517 270.121 415.517 271.716C415.517 273.207 415.257 274.663 414.737 276.084C414.252 277.471 413.507 278.701 412.501 279.776C411.531 280.851 410.317 281.717 408.861 282.376C407.44 283.035 405.776 283.364 403.869 283.364ZM403.557 262.512C402.309 262.581 401.2 262.893 400.229 263.448C399.293 263.968 398.496 264.661 397.837 265.528C397.213 266.36 396.728 267.313 396.381 268.388C396.069 269.463 395.913 270.555 395.913 271.664C395.913 272.947 396.104 274.195 396.485 275.408C396.901 276.587 397.473 277.644 398.201 278.58C398.964 279.516 399.865 280.261 400.905 280.816C401.945 281.371 403.107 281.648 404.389 281.648C405.672 281.648 406.799 281.371 407.769 280.816C408.775 280.261 409.607 279.551 410.265 278.684C410.924 277.783 411.409 276.777 411.721 275.668C412.068 274.559 412.241 273.449 412.241 272.34C412.241 271.196 412.068 270.052 411.721 268.908C411.375 267.729 410.837 266.672 410.109 265.736C409.381 264.765 408.463 263.985 407.353 263.396C406.279 262.807 405.013 262.512 403.557 262.512ZM441.072 279.62C441.072 279.897 441.107 280.209 441.176 280.556C441.245 280.868 441.349 281.163 441.488 281.44C441.661 281.717 441.835 281.96 442.008 282.168C442.216 282.376 442.459 282.48 442.736 282.48V283H436.028V282.48C436.271 282.48 436.496 282.376 436.704 282.168C436.912 281.96 437.085 281.717 437.224 281.44C437.397 281.163 437.519 280.868 437.588 280.556C437.657 280.209 437.692 279.897 437.692 279.62V269.948C437.692 268.7 437.519 267.608 437.172 266.672C436.825 265.736 436.357 264.956 435.768 264.332C435.179 263.708 434.503 263.257 433.74 262.98C433.012 262.668 432.267 262.512 431.504 262.512C430.741 262.512 429.979 262.668 429.216 262.98C428.488 263.292 427.829 263.708 427.24 264.228C426.685 264.713 426.217 265.303 425.836 265.996C425.489 266.655 425.316 267.348 425.316 268.076V279.62C425.316 279.897 425.351 280.209 425.42 280.556C425.489 280.868 425.593 281.163 425.732 281.44C425.905 281.717 426.079 281.96 426.252 282.168C426.46 282.376 426.703 282.48 426.98 282.48V283H420.22V282.48C420.463 282.48 420.688 282.376 420.896 282.168C421.104 281.96 421.277 281.717 421.416 281.44C421.589 281.163 421.711 280.868 421.78 280.556C421.849 280.209 421.884 279.897 421.884 279.62V265.268C421.884 264.679 421.797 264.124 421.624 263.604C421.451 263.049 420.948 262.755 420.116 262.72V262.252L425.316 260.588V263.448C425.559 263.171 425.871 262.876 426.252 262.564C426.633 262.217 427.084 261.905 427.604 261.628C428.159 261.316 428.783 261.073 429.476 260.9C430.204 260.692 431.053 260.588 432.024 260.588C433.653 260.588 435.04 260.865 436.184 261.42C437.328 261.975 438.264 262.703 438.992 263.604C439.72 264.471 440.24 265.441 440.552 266.516C440.899 267.556 441.072 268.579 441.072 269.584V279.62ZM478.252 277.072C478.252 277.973 478.026 278.805 477.576 279.568C477.125 280.331 476.501 281.007 475.704 281.596C474.941 282.151 474.04 282.601 473 282.948C471.96 283.26 470.833 283.416 469.62 283.416C468.129 283.416 466.916 283.225 465.98 282.844C465.044 282.428 464.246 282.012 463.588 281.596C463.137 281.319 462.721 281.093 462.34 280.92C461.958 280.712 461.542 280.608 461.092 280.608V276.656H461.612C461.716 277.141 462.01 277.679 462.496 278.268C463.016 278.823 463.622 279.343 464.316 279.828C465.044 280.313 465.824 280.729 466.656 281.076C467.522 281.388 468.389 281.544 469.256 281.544C469.88 281.544 470.521 281.475 471.18 281.336C471.838 281.197 472.428 280.972 472.948 280.66C473.502 280.348 473.953 279.967 474.3 279.516C474.681 279.031 474.872 278.459 474.872 277.8C474.872 277.141 474.681 276.569 474.3 276.084C473.918 275.599 473.433 275.183 472.844 274.836C472.254 274.455 471.578 274.125 470.816 273.848C470.053 273.571 469.29 273.311 468.528 273.068C467.626 272.791 466.708 272.479 465.772 272.132C464.87 271.785 464.056 271.387 463.328 270.936C462.6 270.451 462.01 269.879 461.56 269.22C461.109 268.527 460.884 267.712 460.884 266.776C460.884 265.979 461.022 265.216 461.3 264.488C461.612 263.76 462.097 263.136 462.756 262.616C463.449 262.061 464.333 261.628 465.408 261.316C466.482 260.969 467.782 260.796 469.308 260.796C470.66 260.796 471.7 260.917 472.428 261.16C473.19 261.368 473.814 261.593 474.3 261.836C474.612 262.009 474.924 262.148 475.236 262.252C475.548 262.321 475.894 262.356 476.276 262.356V265.996H475.86C475.236 264.852 474.282 263.985 473 263.396C471.717 262.807 470.4 262.512 469.048 262.512C468.181 262.512 467.436 262.633 466.812 262.876C466.188 263.084 465.668 263.361 465.252 263.708C464.87 264.02 464.576 264.384 464.368 264.8C464.194 265.216 464.108 265.632 464.108 266.048C464.108 266.637 464.264 267.14 464.576 267.556C464.922 267.972 465.373 268.336 465.928 268.648C466.517 268.96 467.158 269.255 467.852 269.532C468.58 269.809 469.342 270.069 470.14 270.312C471.11 270.624 472.081 270.971 473.052 271.352C474.022 271.699 474.889 272.132 475.652 272.652C476.414 273.172 477.038 273.796 477.524 274.524C478.009 275.217 478.252 276.067 478.252 277.072ZM491.051 290.436C490.565 291.892 489.941 292.88 489.179 293.4C488.451 293.92 487.688 294.18 486.891 294.18C486.371 294.18 485.903 294.111 485.487 293.972C485.105 293.833 484.759 293.66 484.447 293.452C484.169 293.279 483.944 293.105 483.771 292.932C483.597 292.759 483.493 292.62 483.459 292.516L485.175 288.304C485.348 288.928 485.521 289.396 485.695 289.708C485.868 290.055 486.111 290.367 486.423 290.644C486.735 290.921 487.116 291.06 487.567 291.06C488.399 291.06 489.057 290.453 489.543 289.24L492.091 282.844L483.719 263.916C483.545 263.5 483.251 263.032 482.835 262.512C482.453 261.957 481.916 261.68 481.223 261.68V261.16H488.087V261.68C487.948 261.68 487.775 261.801 487.567 262.044C487.359 262.287 487.255 262.599 487.255 262.98C487.255 263.292 487.324 263.569 487.463 263.812L493.859 278.528L499.995 263.5C500.099 263.257 500.151 263.032 500.151 262.824C500.151 262.477 500.029 262.2 499.787 261.992C499.579 261.784 499.353 261.68 499.111 261.68V261.16H504.155V261.68C503.6 261.68 503.115 261.923 502.699 262.408C502.317 262.859 502.005 263.379 501.763 263.968L491.051 290.436ZM524.26 277.072C524.26 277.973 524.034 278.805 523.584 279.568C523.133 280.331 522.509 281.007 521.712 281.596C520.949 282.151 520.048 282.601 519.008 282.948C517.968 283.26 516.841 283.416 515.628 283.416C514.137 283.416 512.924 283.225 511.988 282.844C511.052 282.428 510.254 282.012 509.596 281.596C509.145 281.319 508.729 281.093 508.348 280.92C507.966 280.712 507.55 280.608 507.1 280.608V276.656H507.62C507.724 277.141 508.018 277.679 508.504 278.268C509.024 278.823 509.63 279.343 510.324 279.828C511.052 280.313 511.832 280.729 512.664 281.076C513.53 281.388 514.397 281.544 515.264 281.544C515.888 281.544 516.529 281.475 517.188 281.336C517.846 281.197 518.436 280.972 518.956 280.66C519.51 280.348 519.961 279.967 520.308 279.516C520.689 279.031 520.88 278.459 520.88 277.8C520.88 277.141 520.689 276.569 520.308 276.084C519.926 275.599 519.441 275.183 518.852 274.836C518.262 274.455 517.586 274.125 516.824 273.848C516.061 273.571 515.298 273.311 514.536 273.068C513.634 272.791 512.716 272.479 511.78 272.132C510.878 271.785 510.064 271.387 509.336 270.936C508.608 270.451 508.018 269.879 507.568 269.22C507.117 268.527 506.892 267.712 506.892 266.776C506.892 265.979 507.03 265.216 507.308 264.488C507.62 263.76 508.105 263.136 508.764 262.616C509.457 262.061 510.341 261.628 511.416 261.316C512.49 260.969 513.79 260.796 515.316 260.796C516.668 260.796 517.708 260.917 518.436 261.16C519.198 261.368 519.822 261.593 520.308 261.836C520.62 262.009 520.932 262.148 521.244 262.252C521.556 262.321 521.902 262.356 522.284 262.356V265.996H521.868C521.244 264.852 520.29 263.985 519.008 263.396C517.725 262.807 516.408 262.512 515.056 262.512C514.189 262.512 513.444 262.633 512.82 262.876C512.196 263.084 511.676 263.361 511.26 263.708C510.878 264.02 510.584 264.384 510.376 264.8C510.202 265.216 510.116 265.632 510.116 266.048C510.116 266.637 510.272 267.14 510.584 267.556C510.93 267.972 511.381 268.336 511.936 268.648C512.525 268.96 513.166 269.255 513.86 269.532C514.588 269.809 515.35 270.069 516.148 270.312C517.118 270.624 518.089 270.971 519.06 271.352C520.03 271.699 520.897 272.132 521.66 272.652C522.422 273.172 523.046 273.796 523.532 274.524C524.017 275.217 524.26 276.067 524.26 277.072ZM533.834 262.928V275.46C533.834 276.361 533.852 277.176 533.886 277.904C533.921 278.632 534.008 279.239 534.146 279.724C534.285 280.209 534.493 280.591 534.77 280.868C535.048 281.111 535.429 281.232 535.914 281.232C536.642 281.232 537.318 280.885 537.942 280.192C538.601 279.499 539.017 278.667 539.19 277.696H539.658V281.492C539.346 281.492 539.086 281.596 538.878 281.804C538.601 282.047 538.202 282.307 537.682 282.584C537.197 282.861 536.452 283 535.446 283C534.198 283 533.228 282.757 532.534 282.272C531.841 281.787 531.338 281.145 531.026 280.348C530.714 279.551 530.524 278.667 530.454 277.696C530.42 276.725 530.402 275.737 530.402 274.732V262.928H527.49V261.16H530.402V256.532C530.402 255.943 530.316 255.405 530.142 254.92C530.004 254.4 529.501 254.123 528.634 254.088V253.568L533.834 251.904V261.16H539.658V262.928H533.834ZM546.427 272.496C546.565 273.709 546.86 274.871 547.311 275.98C547.761 277.055 548.351 278.008 549.079 278.84C549.841 279.672 550.76 280.348 551.835 280.868C552.909 281.353 554.157 281.596 555.579 281.596C556.341 281.596 557.139 281.492 557.971 281.284C558.837 281.041 559.635 280.712 560.363 280.296C561.091 279.88 561.732 279.377 562.287 278.788C562.876 278.164 563.275 277.471 563.483 276.708H563.951V280.608C563.743 280.608 563.5 280.677 563.223 280.816C562.98 280.955 562.685 281.128 562.339 281.336C561.645 281.752 560.709 282.203 559.531 282.688C558.352 283.139 556.792 283.364 554.851 283.364C553.291 283.364 551.8 283.139 550.379 282.688C548.992 282.237 547.761 281.544 546.687 280.608C545.612 279.672 544.745 278.476 544.087 277.02C543.463 275.564 543.151 273.831 543.151 271.82C543.151 270.537 543.359 269.237 543.775 267.92C544.225 266.603 544.884 265.424 545.751 264.384C546.652 263.309 547.796 262.443 549.183 261.784C550.569 261.125 552.233 260.796 554.175 260.796C555.908 260.796 557.416 261.091 558.699 261.68C560.016 262.269 561.091 263.084 561.923 264.124C562.789 265.164 563.431 266.395 563.847 267.816C564.263 269.237 564.471 270.797 564.471 272.496H546.427ZM553.967 262.512C552.753 262.512 551.696 262.755 550.795 263.24C549.928 263.725 549.183 264.349 548.559 265.112C547.935 265.875 547.449 266.741 547.103 267.712C546.756 268.683 546.531 269.653 546.427 270.624H561.247C561.212 269.619 561.021 268.631 560.675 267.66C560.363 266.689 559.912 265.823 559.323 265.06C558.733 264.297 557.988 263.691 557.087 263.24C556.185 262.755 555.145 262.512 553.967 262.512ZM602.085 279.62C602.085 279.897 602.12 280.209 602.189 280.556C602.258 280.868 602.362 281.163 602.501 281.44C602.64 281.717 602.796 281.96 602.969 282.168C603.177 282.376 603.42 282.48 603.697 282.48V283H596.937V282.48C597.214 282.48 597.457 282.376 597.665 282.168C597.873 281.96 598.046 281.717 598.185 281.44C598.358 281.163 598.48 280.868 598.549 280.556C598.618 280.209 598.653 279.897 598.653 279.62V268.388C598.653 267.591 598.532 266.828 598.289 266.1C598.081 265.372 597.752 264.748 597.301 264.228C596.85 263.673 596.296 263.24 595.637 262.928C594.978 262.581 594.233 262.408 593.401 262.408C592.465 262.408 591.65 262.633 590.957 263.084C590.298 263.5 589.744 264.02 589.293 264.644C588.877 265.268 588.565 265.909 588.357 266.568C588.149 267.192 588.045 267.712 588.045 268.128V279.62C588.045 279.897 588.08 280.209 588.149 280.556C588.218 280.868 588.322 281.163 588.461 281.44C588.634 281.717 588.808 281.96 588.981 282.168C589.189 282.376 589.432 282.48 589.709 282.48V283H583.001V282.48C583.244 282.48 583.469 282.376 583.677 282.168C583.885 281.96 584.058 281.717 584.197 281.44C584.37 281.163 584.492 280.868 584.561 280.556C584.63 280.209 584.665 279.897 584.665 279.62V268.076C584.665 267.244 584.509 266.481 584.197 265.788C583.92 265.06 583.521 264.453 583.001 263.968C582.516 263.483 581.944 263.101 581.285 262.824C580.661 262.547 580.02 262.408 579.361 262.408C578.46 262.408 577.662 262.581 576.969 262.928C576.31 263.275 575.756 263.708 575.305 264.228C574.889 264.748 574.56 265.32 574.317 265.944C574.109 266.533 574.005 267.105 574.005 267.66V279.62C574.005 279.897 574.04 280.209 574.109 280.556C574.178 280.868 574.282 281.163 574.421 281.44C574.594 281.717 574.768 281.96 574.941 282.168C575.149 282.376 575.392 282.48 575.669 282.48V283H568.961V282.48C569.204 282.48 569.429 282.376 569.637 282.168C569.845 281.96 570.018 281.717 570.157 281.44C570.33 281.163 570.452 280.868 570.521 280.556C570.59 280.209 570.625 279.897 570.625 279.62V265.736C570.625 265.459 570.608 265.147 570.573 264.8C570.538 264.453 570.469 264.124 570.365 263.812C570.261 263.5 570.088 263.24 569.845 263.032C569.602 262.824 569.273 262.72 568.857 262.72V262.252L574.005 260.536V263.188C574.525 262.599 575.236 262.027 576.137 261.472C577.073 260.917 578.286 260.64 579.777 260.64C580.748 260.64 581.614 260.779 582.377 261.056C583.14 261.333 583.798 261.697 584.353 262.148C584.942 262.564 585.445 263.049 585.861 263.604C586.277 264.159 586.624 264.696 586.901 265.216C587.178 264.696 587.508 264.176 587.889 263.656C588.27 263.101 588.721 262.599 589.241 262.148C589.796 261.697 590.437 261.333 591.165 261.056C591.928 260.779 592.812 260.64 593.817 260.64C595.758 260.64 597.284 260.987 598.393 261.68C599.502 262.373 600.317 263.205 600.837 264.176C601.392 265.147 601.738 266.169 601.877 267.244C602.016 268.284 602.085 269.168 602.085 269.896V279.62ZM2.288 292.68H9.672C13.52 292.68 16.432 293.425 18.408 294.916C20.4187 296.372 21.424 298.452 21.424 301.156C21.424 302.612 21.0773 303.912 20.384 305.056C19.6907 306.2 18.772 307.171 17.628 307.968C16.5187 308.731 15.2533 309.32 13.832 309.736C12.4453 310.152 11.0587 310.36 9.672 310.36H7.696V323.62C7.696 323.897 7.73067 324.209 7.8 324.556C7.86933 324.868 7.97333 325.163 8.112 325.44C8.28533 325.717 8.45867 325.96 8.632 326.168C8.84 326.376 9.08267 326.48 9.36 326.48H9.62V327H2.288V326.48H2.548C2.79067 326.48 3.016 326.376 3.224 326.168C3.432 325.96 3.60533 325.717 3.744 325.44C3.88267 325.163 3.98667 324.868 4.056 324.556C4.12533 324.209 4.16 323.897 4.16 323.62V295.904C4.16 295.419 4.02133 294.864 3.744 294.24C3.46667 293.616 3.068 293.269 2.548 293.2H2.288V292.68ZM7.696 294.5V308.54H9.256C10.6427 308.54 11.8733 308.349 12.948 307.968C14.0573 307.587 14.976 307.084 15.704 306.46C16.432 305.836 16.9867 305.125 17.368 304.328C17.7493 303.531 17.94 302.716 17.94 301.884C17.94 300.879 17.7667 299.943 17.42 299.076C17.108 298.175 16.5707 297.395 15.808 296.736C15.08 296.043 14.1093 295.505 12.896 295.124C11.6827 294.708 10.192 294.5 8.424 294.5H7.696ZM38.5397 308.956C38.1237 308.263 37.6904 307.829 37.2397 307.656C36.7891 307.483 36.2691 307.396 35.6797 307.396C35.2984 307.396 34.8824 307.483 34.4317 307.656C34.0157 307.829 33.5997 308.055 33.1837 308.332C32.7677 308.609 32.3517 308.921 31.9357 309.268C31.5544 309.58 31.2251 309.875 30.9477 310.152V323.672C30.9477 323.949 30.9824 324.244 31.0517 324.556C31.1211 324.868 31.2251 325.18 31.3637 325.492C31.5371 325.769 31.7104 326.012 31.8837 326.22C32.0917 326.393 32.3344 326.48 32.6117 326.48V327H25.8517V326.48C26.0944 326.48 26.3197 326.393 26.5277 326.22C26.7357 326.012 26.9091 325.769 27.0477 325.492C27.2211 325.18 27.3424 324.868 27.4117 324.556C27.4811 324.244 27.5157 323.949 27.5157 323.672V309.164C27.5157 308.679 27.3597 308.193 27.0477 307.708C26.7357 307.223 26.2851 306.911 25.6957 306.772V306.356L30.9477 304.796V307.916C31.2597 307.535 31.5891 307.171 31.9357 306.824C32.2824 306.443 32.6637 306.113 33.0797 305.836C33.5304 305.524 34.0157 305.281 34.5357 305.108C35.0557 304.9 35.6624 304.796 36.3557 304.796C36.8411 304.796 37.4651 304.9 38.2277 305.108C38.9904 305.316 39.6144 305.541 40.0997 305.784L38.5397 308.956ZM54.2913 327.364C52.5579 327.364 50.9979 327.087 49.6113 326.532C48.2246 325.943 47.0286 325.163 46.0233 324.192C45.0526 323.187 44.2899 322.008 43.7353 320.656C43.2153 319.304 42.9553 317.831 42.9553 316.236C42.9553 314.537 43.2499 312.995 43.8393 311.608C44.4286 310.187 45.2433 308.973 46.2833 307.968C47.3233 306.963 48.5539 306.183 49.9753 305.628C51.3966 305.073 52.9393 304.796 54.6033 304.796C56.2673 304.796 57.7926 305.073 59.1793 305.628C60.5659 306.148 61.7619 306.893 62.7673 307.864C63.7726 308.835 64.5526 309.996 65.1073 311.348C65.6619 312.665 65.9393 314.121 65.9393 315.716C65.9393 317.207 65.6793 318.663 65.1593 320.084C64.6739 321.471 63.9286 322.701 62.9233 323.776C61.9526 324.851 60.7393 325.717 59.2833 326.376C57.8619 327.035 56.1979 327.364 54.2913 327.364ZM53.9793 306.512C52.7313 306.581 51.6219 306.893 50.6513 307.448C49.7153 307.968 48.9179 308.661 48.2593 309.528C47.6353 310.36 47.1499 311.313 46.8033 312.388C46.4913 313.463 46.3353 314.555 46.3353 315.664C46.3353 316.947 46.5259 318.195 46.9073 319.408C47.3233 320.587 47.8953 321.644 48.6233 322.58C49.3859 323.516 50.2873 324.261 51.3273 324.816C52.3673 325.371 53.5286 325.648 54.8113 325.648C56.0939 325.648 57.2206 325.371 58.1913 324.816C59.1966 324.261 60.0286 323.551 60.6873 322.684C61.3459 321.783 61.8313 320.777 62.1433 319.668C62.4899 318.559 62.6633 317.449 62.6633 316.34C62.6633 315.196 62.4899 314.052 62.1433 312.908C61.7966 311.729 61.2593 310.672 60.5313 309.736C59.8033 308.765 58.8846 307.985 57.7753 307.396C56.7006 306.807 55.4353 306.512 53.9793 306.512ZM81.406 336.672C82.446 336.672 83.434 336.568 84.37 336.36C85.306 336.187 86.1207 335.927 86.814 335.58C87.542 335.233 88.114 334.817 88.53 334.332C88.946 333.847 89.154 333.327 89.154 332.772C89.154 332.183 88.8593 331.68 88.27 331.264C87.7153 330.848 86.9527 330.484 85.982 330.172C85.0113 329.86 83.8847 329.583 82.602 329.34C81.3193 329.132 79.9847 328.907 78.598 328.664L75.946 328.196C75.1487 328.82 74.594 329.479 74.282 330.172C73.97 330.865 73.814 331.472 73.814 331.992C73.814 332.72 74.0047 333.361 74.386 333.916C74.802 334.505 75.3393 335.008 75.998 335.424C76.6913 335.84 77.4887 336.152 78.39 336.36C79.326 336.568 80.3313 336.672 81.406 336.672ZM84.266 326.272C85.6527 326.48 86.7967 326.757 87.698 327.104C88.634 327.451 89.3793 327.849 89.934 328.3C90.4887 328.785 90.87 329.305 91.078 329.86C91.286 330.449 91.39 331.073 91.39 331.732C91.39 332.911 91.0607 333.933 90.402 334.8C89.778 335.667 88.946 336.377 87.906 336.932C86.9007 337.521 85.7393 337.955 84.422 338.232C83.1393 338.509 81.822 338.648 80.47 338.648C79.1527 338.648 77.8873 338.509 76.674 338.232C75.4607 337.989 74.386 337.608 73.45 337.088C72.514 336.568 71.7687 335.909 71.214 335.112C70.6593 334.349 70.382 333.465 70.382 332.46C70.382 331.559 70.6593 330.692 71.214 329.86C71.7687 329.063 72.67 328.265 73.918 327.468C72.7047 326.844 71.7687 326.012 71.11 324.972C70.486 323.897 70.174 322.805 70.174 321.696C70.174 321.037 70.33 320.396 70.642 319.772C70.954 319.113 71.4567 318.507 72.15 317.952C71.5607 317.259 71.1447 316.565 70.902 315.872C70.6593 315.179 70.538 314.433 70.538 313.636C70.538 312.388 70.798 311.227 71.318 310.152C71.838 309.077 72.5487 308.141 73.45 307.344C74.3513 306.547 75.4087 305.923 76.622 305.472C77.8353 305.021 79.1353 304.796 80.522 304.796C81.978 304.796 83.3647 305.056 84.682 305.576C85.9993 306.061 87.1087 306.703 88.01 307.5H91.754V309.372H89.362C89.6047 309.892 89.8473 310.516 90.09 311.244C90.3327 311.937 90.454 312.665 90.454 313.428C90.454 314.537 90.194 315.595 89.674 316.6C89.154 317.571 88.426 318.437 87.49 319.2C86.5887 319.928 85.514 320.517 84.266 320.968C83.0527 321.384 81.7527 321.592 80.366 321.592C79.0833 321.592 77.8353 321.401 76.622 321.02C75.4087 320.639 74.334 320.084 73.398 319.356C73.0167 319.599 72.7567 319.911 72.618 320.292C72.4793 320.639 72.41 321.003 72.41 321.384C72.41 322.493 72.9127 323.36 73.918 323.984C74.9233 324.573 76.206 324.989 77.766 325.232L84.266 326.272ZM79.898 306.616C79.066 306.616 78.286 306.772 77.558 307.084C76.83 307.361 76.1887 307.76 75.634 308.28C75.0793 308.8 74.6287 309.441 74.282 310.204C73.97 310.932 73.814 311.764 73.814 312.7C73.814 313.844 74.0393 314.867 74.49 315.768C74.9753 316.669 75.582 317.415 76.31 318.004C77.038 318.593 77.8353 319.044 78.702 319.356C79.6033 319.668 80.4527 319.824 81.25 319.824C82.1167 319.824 82.8967 319.668 83.59 319.356C84.318 319.009 84.942 318.559 85.462 318.004C85.982 317.415 86.3807 316.739 86.658 315.976C86.9353 315.213 87.074 314.416 87.074 313.584C87.074 312.544 86.866 311.591 86.45 310.724C86.034 309.857 85.4793 309.129 84.786 308.54C84.1273 307.916 83.3647 307.448 82.498 307.136C81.6313 306.789 80.7647 306.616 79.898 306.616ZM109.024 308.956C108.608 308.263 108.175 307.829 107.724 307.656C107.273 307.483 106.753 307.396 106.164 307.396C105.783 307.396 105.367 307.483 104.916 307.656C104.5 307.829 104.084 308.055 103.668 308.332C103.252 308.609 102.836 308.921 102.42 309.268C102.039 309.58 101.709 309.875 101.432 310.152V323.672C101.432 323.949 101.467 324.244 101.536 324.556C101.605 324.868 101.709 325.18 101.848 325.492C102.021 325.769 102.195 326.012 102.368 326.22C102.576 326.393 102.819 326.48 103.096 326.48V327H96.3361V326.48C96.5788 326.48 96.8041 326.393 97.0121 326.22C97.2201 326.012 97.3934 325.769 97.5321 325.492C97.7054 325.18 97.8268 324.868 97.8961 324.556C97.9654 324.244 98.0001 323.949 98.0001 323.672V309.164C98.0001 308.679 97.8441 308.193 97.5321 307.708C97.2201 307.223 96.7694 306.911 96.1801 306.772V306.356L101.432 304.796V307.916C101.744 307.535 102.073 307.171 102.42 306.824C102.767 306.443 103.148 306.113 103.564 305.836C104.015 305.524 104.5 305.281 105.02 305.108C105.54 304.9 106.147 304.796 106.84 304.796C107.325 304.796 107.949 304.9 108.712 305.108C109.475 305.316 110.099 305.541 110.584 305.784L109.024 308.956ZM127.584 327V324.348L127.324 324.608C126.457 325.475 125.452 326.151 124.308 326.636C123.198 327.121 121.846 327.364 120.252 327.364C119.038 327.364 117.998 327.225 117.132 326.948C116.265 326.671 115.554 326.289 115 325.804C114.445 325.284 114.029 324.695 113.752 324.036C113.509 323.377 113.388 322.684 113.388 321.956C113.388 320.777 113.7 319.737 114.324 318.836C114.982 317.935 115.918 317.137 117.132 316.444C118.345 315.751 119.818 315.127 121.552 314.572C123.32 313.983 125.33 313.411 127.584 312.856C127.514 311.504 127.237 310.412 126.752 309.58C126.266 308.748 125.694 308.107 125.036 307.656C124.377 307.171 123.684 306.859 122.956 306.72C122.228 306.547 121.604 306.46 121.084 306.46C120.182 306.46 119.385 306.599 118.692 306.876C118.033 307.153 117.444 307.517 116.924 307.968C116.438 308.384 116.022 308.852 115.676 309.372C115.329 309.857 115.052 310.325 114.844 310.776H114.376V306.98C114.653 306.945 114.913 306.859 115.156 306.72C115.398 306.581 115.693 306.443 116.04 306.304C116.56 306.096 117.27 305.801 118.172 305.42C119.073 305.004 120.338 304.796 121.968 304.796C123.874 304.796 125.417 305.039 126.596 305.524C127.774 306.009 128.676 306.651 129.3 307.448C129.958 308.245 130.392 309.164 130.6 310.204C130.808 311.209 130.912 312.249 130.912 313.324V323.62C130.912 324.313 131.068 324.972 131.38 325.596C131.692 326.185 132.108 326.48 132.628 326.48V327H127.584ZM127.584 322.06V314.624L127.064 314.728C126.232 314.936 125.209 315.213 123.996 315.56C122.817 315.907 121.69 316.357 120.616 316.912C119.541 317.467 118.622 318.125 117.86 318.888C117.097 319.651 116.716 320.535 116.716 321.54C116.716 322.649 117.166 323.568 118.068 324.296C118.969 325.024 120.148 325.388 121.604 325.388C122.748 325.388 123.753 325.145 124.62 324.66C125.486 324.14 126.284 323.481 127.012 322.684L127.584 322.06ZM170.901 323.62C170.901 323.897 170.936 324.209 171.005 324.556C171.075 324.868 171.179 325.163 171.317 325.44C171.456 325.717 171.612 325.96 171.785 326.168C171.993 326.376 172.236 326.48 172.513 326.48V327H165.753V326.48C166.031 326.48 166.273 326.376 166.481 326.168C166.689 325.96 166.863 325.717 167.001 325.44C167.175 325.163 167.296 324.868 167.365 324.556C167.435 324.209 167.469 323.897 167.469 323.62V312.388C167.469 311.591 167.348 310.828 167.105 310.1C166.897 309.372 166.568 308.748 166.117 308.228C165.667 307.673 165.112 307.24 164.453 306.928C163.795 306.581 163.049 306.408 162.217 306.408C161.281 306.408 160.467 306.633 159.773 307.084C159.115 307.5 158.56 308.02 158.109 308.644C157.693 309.268 157.381 309.909 157.173 310.568C156.965 311.192 156.861 311.712 156.861 312.128V323.62C156.861 323.897 156.896 324.209 156.965 324.556C157.035 324.868 157.139 325.163 157.277 325.44C157.451 325.717 157.624 325.96 157.797 326.168C158.005 326.376 158.248 326.48 158.525 326.48V327H151.817V326.48C152.06 326.48 152.285 326.376 152.493 326.168C152.701 325.96 152.875 325.717 153.013 325.44C153.187 325.163 153.308 324.868 153.377 324.556C153.447 324.209 153.481 323.897 153.481 323.62V312.076C153.481 311.244 153.325 310.481 153.013 309.788C152.736 309.06 152.337 308.453 151.817 307.968C151.332 307.483 150.76 307.101 150.101 306.824C149.477 306.547 148.836 306.408 148.177 306.408C147.276 306.408 146.479 306.581 145.785 306.928C145.127 307.275 144.572 307.708 144.121 308.228C143.705 308.748 143.376 309.32 143.133 309.944C142.925 310.533 142.821 311.105 142.821 311.66V323.62C142.821 323.897 142.856 324.209 142.925 324.556C142.995 324.868 143.099 325.163 143.237 325.44C143.411 325.717 143.584 325.96 143.757 326.168C143.965 326.376 144.208 326.48 144.485 326.48V327H137.777V326.48C138.02 326.48 138.245 326.376 138.453 326.168C138.661 325.96 138.835 325.717 138.973 325.44C139.147 325.163 139.268 324.868 139.337 324.556C139.407 324.209 139.441 323.897 139.441 323.62V309.736C139.441 309.459 139.424 309.147 139.389 308.8C139.355 308.453 139.285 308.124 139.181 307.812C139.077 307.5 138.904 307.24 138.661 307.032C138.419 306.824 138.089 306.72 137.673 306.72V306.252L142.821 304.536V307.188C143.341 306.599 144.052 306.027 144.953 305.472C145.889 304.917 147.103 304.64 148.593 304.64C149.564 304.64 150.431 304.779 151.193 305.056C151.956 305.333 152.615 305.697 153.169 306.148C153.759 306.564 154.261 307.049 154.677 307.604C155.093 308.159 155.44 308.696 155.717 309.216C155.995 308.696 156.324 308.176 156.705 307.656C157.087 307.101 157.537 306.599 158.057 306.148C158.612 305.697 159.253 305.333 159.981 305.056C160.744 304.779 161.628 304.64 162.633 304.64C164.575 304.64 166.1 304.987 167.209 305.68C168.319 306.373 169.133 307.205 169.653 308.176C170.208 309.147 170.555 310.169 170.693 311.244C170.832 312.284 170.901 313.168 170.901 313.896V323.62ZM211.12 323.62C211.12 323.897 211.155 324.209 211.224 324.556C211.293 324.868 211.397 325.163 211.536 325.44C211.675 325.717 211.831 325.96 212.004 326.168C212.212 326.376 212.455 326.48 212.732 326.48V327H205.972V326.48C206.249 326.48 206.492 326.376 206.7 326.168C206.908 325.96 207.081 325.717 207.22 325.44C207.393 325.163 207.515 324.868 207.584 324.556C207.653 324.209 207.688 323.897 207.688 323.62V312.388C207.688 311.591 207.567 310.828 207.324 310.1C207.116 309.372 206.787 308.748 206.336 308.228C205.885 307.673 205.331 307.24 204.672 306.928C204.013 306.581 203.268 306.408 202.436 306.408C201.5 306.408 200.685 306.633 199.992 307.084C199.333 307.5 198.779 308.02 198.328 308.644C197.912 309.268 197.6 309.909 197.392 310.568C197.184 311.192 197.08 311.712 197.08 312.128V323.62C197.08 323.897 197.115 324.209 197.184 324.556C197.253 324.868 197.357 325.163 197.496 325.44C197.669 325.717 197.843 325.96 198.016 326.168C198.224 326.376 198.467 326.48 198.744 326.48V327H192.036V326.48C192.279 326.48 192.504 326.376 192.712 326.168C192.92 325.96 193.093 325.717 193.232 325.44C193.405 325.163 193.527 324.868 193.596 324.556C193.665 324.209 193.7 323.897 193.7 323.62V312.076C193.7 311.244 193.544 310.481 193.232 309.788C192.955 309.06 192.556 308.453 192.036 307.968C191.551 307.483 190.979 307.101 190.32 306.824C189.696 306.547 189.055 306.408 188.396 306.408C187.495 306.408 186.697 306.581 186.004 306.928C185.345 307.275 184.791 307.708 184.34 308.228C183.924 308.748 183.595 309.32 183.352 309.944C183.144 310.533 183.04 311.105 183.04 311.66V323.62C183.04 323.897 183.075 324.209 183.144 324.556C183.213 324.868 183.317 325.163 183.456 325.44C183.629 325.717 183.803 325.96 183.976 326.168C184.184 326.376 184.427 326.48 184.704 326.48V327H177.996V326.48C178.239 326.48 178.464 326.376 178.672 326.168C178.88 325.96 179.053 325.717 179.192 325.44C179.365 325.163 179.487 324.868 179.556 324.556C179.625 324.209 179.66 323.897 179.66 323.62V309.736C179.66 309.459 179.643 309.147 179.608 308.8C179.573 308.453 179.504 308.124 179.4 307.812C179.296 307.5 179.123 307.24 178.88 307.032C178.637 306.824 178.308 306.72 177.892 306.72V306.252L183.04 304.536V307.188C183.56 306.599 184.271 306.027 185.172 305.472C186.108 304.917 187.321 304.64 188.812 304.64C189.783 304.64 190.649 304.779 191.412 305.056C192.175 305.333 192.833 305.697 193.388 306.148C193.977 306.564 194.48 307.049 194.896 307.604C195.312 308.159 195.659 308.696 195.936 309.216C196.213 308.696 196.543 308.176 196.924 307.656C197.305 307.101 197.756 306.599 198.276 306.148C198.831 305.697 199.472 305.333 200.2 305.056C200.963 304.779 201.847 304.64 202.852 304.64C204.793 304.64 206.319 304.987 207.428 305.68C208.537 306.373 209.352 307.205 209.872 308.176C210.427 309.147 210.773 310.169 210.912 311.244C211.051 312.284 211.12 313.168 211.12 313.896V323.62ZM220.919 316.496C221.057 317.709 221.352 318.871 221.803 319.98C222.253 321.055 222.843 322.008 223.571 322.84C224.333 323.672 225.252 324.348 226.327 324.868C227.401 325.353 228.649 325.596 230.071 325.596C230.833 325.596 231.631 325.492 232.463 325.284C233.329 325.041 234.127 324.712 234.855 324.296C235.583 323.88 236.224 323.377 236.779 322.788C237.368 322.164 237.767 321.471 237.975 320.708H238.443V324.608C238.235 324.608 237.992 324.677 237.715 324.816C237.472 324.955 237.177 325.128 236.831 325.336C236.137 325.752 235.201 326.203 234.023 326.688C232.844 327.139 231.284 327.364 229.343 327.364C227.783 327.364 226.292 327.139 224.871 326.688C223.484 326.237 222.253 325.544 221.179 324.608C220.104 323.672 219.237 322.476 218.579 321.02C217.955 319.564 217.643 317.831 217.643 315.82C217.643 314.537 217.851 313.237 218.267 311.92C218.717 310.603 219.376 309.424 220.243 308.384C221.144 307.309 222.288 306.443 223.675 305.784C225.061 305.125 226.725 304.796 228.667 304.796C230.4 304.796 231.908 305.091 233.191 305.68C234.508 306.269 235.583 307.084 236.415 308.124C237.281 309.164 237.923 310.395 238.339 311.816C238.755 313.237 238.963 314.797 238.963 316.496H220.919ZM228.459 306.512C227.245 306.512 226.188 306.755 225.287 307.24C224.42 307.725 223.675 308.349 223.051 309.112C222.427 309.875 221.941 310.741 221.595 311.712C221.248 312.683 221.023 313.653 220.919 314.624H235.739C235.704 313.619 235.513 312.631 235.167 311.66C234.855 310.689 234.404 309.823 233.815 309.06C233.225 308.297 232.48 307.691 231.579 307.24C230.677 306.755 229.637 306.512 228.459 306.512ZM255.985 308.956C255.569 308.263 255.136 307.829 254.685 307.656C254.234 307.483 253.714 307.396 253.125 307.396C252.744 307.396 252.328 307.483 251.877 307.656C251.461 307.829 251.045 308.055 250.629 308.332C250.213 308.609 249.797 308.921 249.381 309.268C249 309.58 248.67 309.875 248.393 310.152V323.672C248.393 323.949 248.428 324.244 248.497 324.556C248.566 324.868 248.67 325.18 248.809 325.492C248.982 325.769 249.156 326.012 249.329 326.22C249.537 326.393 249.78 326.48 250.057 326.48V327H243.297V326.48C243.54 326.48 243.765 326.393 243.973 326.22C244.181 326.012 244.354 325.769 244.493 325.492C244.666 325.18 244.788 324.868 244.857 324.556C244.926 324.244 244.961 323.949 244.961 323.672V309.164C244.961 308.679 244.805 308.193 244.493 307.708C244.181 307.223 243.73 306.911 243.141 306.772V306.356L248.393 304.796V307.916C248.705 307.535 249.034 307.171 249.381 306.824C249.728 306.443 250.109 306.113 250.525 305.836C250.976 305.524 251.461 305.281 251.981 305.108C252.501 304.9 253.108 304.796 253.801 304.796C254.286 304.796 254.91 304.9 255.673 305.108C256.436 305.316 257.06 305.541 257.545 305.784L255.985 308.956ZM277.717 321.072C277.717 321.973 277.491 322.805 277.041 323.568C276.59 324.331 275.966 325.007 275.169 325.596C274.406 326.151 273.505 326.601 272.465 326.948C271.425 327.26 270.298 327.416 269.085 327.416C267.594 327.416 266.381 327.225 265.445 326.844C264.509 326.428 263.711 326.012 263.053 325.596C262.602 325.319 262.186 325.093 261.805 324.92C261.423 324.712 261.007 324.608 260.557 324.608V320.656H261.077C261.181 321.141 261.475 321.679 261.961 322.268C262.481 322.823 263.087 323.343 263.781 323.828C264.509 324.313 265.289 324.729 266.121 325.076C266.987 325.388 267.854 325.544 268.721 325.544C269.345 325.544 269.986 325.475 270.645 325.336C271.303 325.197 271.893 324.972 272.413 324.66C272.967 324.348 273.418 323.967 273.765 323.516C274.146 323.031 274.337 322.459 274.337 321.8C274.337 321.141 274.146 320.569 273.765 320.084C273.383 319.599 272.898 319.183 272.309 318.836C271.719 318.455 271.043 318.125 270.281 317.848C269.518 317.571 268.755 317.311 267.993 317.068C267.091 316.791 266.173 316.479 265.237 316.132C264.335 315.785 263.521 315.387 262.793 314.936C262.065 314.451 261.475 313.879 261.025 313.22C260.574 312.527 260.349 311.712 260.349 310.776C260.349 309.979 260.487 309.216 260.765 308.488C261.077 307.76 261.562 307.136 262.221 306.616C262.914 306.061 263.798 305.628 264.873 305.316C265.947 304.969 267.247 304.796 268.773 304.796C270.125 304.796 271.165 304.917 271.893 305.16C272.655 305.368 273.279 305.593 273.765 305.836C274.077 306.009 274.389 306.148 274.701 306.252C275.013 306.321 275.359 306.356 275.741 306.356V309.996H275.325C274.701 308.852 273.747 307.985 272.465 307.396C271.182 306.807 269.865 306.512 268.513 306.512C267.646 306.512 266.901 306.633 266.277 306.876C265.653 307.084 265.133 307.361 264.717 307.708C264.335 308.02 264.041 308.384 263.833 308.8C263.659 309.216 263.573 309.632 263.573 310.048C263.573 310.637 263.729 311.14 264.041 311.556C264.387 311.972 264.838 312.336 265.393 312.648C265.982 312.96 266.623 313.255 267.317 313.532C268.045 313.809 268.807 314.069 269.605 314.312C270.575 314.624 271.546 314.971 272.517 315.352C273.487 315.699 274.354 316.132 275.117 316.652C275.879 317.172 276.503 317.796 276.989 318.524C277.474 319.217 277.717 320.067 277.717 321.072ZM314.007 294.032C311.442 294.032 309.206 294.5 307.299 295.436C305.427 296.337 303.867 297.533 302.619 299.024C301.371 300.48 300.435 302.127 299.811 303.964C299.222 305.801 298.927 307.621 298.927 309.424C298.927 311.469 299.326 313.48 300.123 315.456C300.921 317.397 302.013 319.131 303.399 320.656C304.821 322.147 306.467 323.36 308.339 324.296C310.211 325.197 312.239 325.648 314.423 325.648C315.047 325.648 315.775 325.579 316.607 325.44C317.474 325.301 318.323 325.041 319.155 324.66C319.987 324.244 320.75 323.672 321.443 322.944C322.171 322.216 322.726 321.263 323.107 320.084H323.627V325.856C323.107 325.856 322.553 325.925 321.963 326.064C321.409 326.203 320.785 326.359 320.091 326.532C319.19 326.775 318.185 327 317.075 327.208C316.001 327.416 314.857 327.52 313.643 327.52C310.627 327.52 307.975 327 305.687 325.96C303.399 324.92 301.493 323.568 299.967 321.904C298.442 320.24 297.298 318.368 296.535 316.288C295.773 314.173 295.391 312.041 295.391 309.892C295.391 307.743 295.773 305.611 296.535 303.496C297.298 301.381 298.459 299.492 300.019 297.828C301.579 296.129 303.538 294.76 305.895 293.72C308.253 292.68 311.026 292.16 314.215 292.16C315.359 292.16 316.382 292.264 317.283 292.472C318.219 292.68 319.051 292.888 319.779 293.096C320.299 293.269 320.767 293.408 321.183 293.512C321.634 293.581 322.067 293.616 322.483 293.616V299.388H321.963C321.755 298.313 321.374 297.429 320.819 296.736C320.265 296.008 319.606 295.453 318.843 295.072C318.115 294.691 317.318 294.431 316.451 294.292C315.619 294.119 314.805 294.032 314.007 294.032ZM328.31 327V326.48C328.587 326.48 328.83 326.376 329.038 326.168C329.246 325.96 329.419 325.717 329.558 325.44C329.731 325.163 329.852 324.868 329.922 324.556C329.991 324.209 330.026 323.897 330.026 323.62V296.996C330.026 296.407 329.939 295.852 329.766 295.332C329.592 294.812 329.072 294.535 328.206 294.5V293.98L333.458 292.368V323.62C333.458 323.897 333.492 324.209 333.562 324.556C333.631 324.868 333.735 325.163 333.874 325.44C334.047 325.717 334.22 325.96 334.394 326.168C334.602 326.376 334.844 326.48 335.122 326.48V327H328.31ZM360.729 323.62C360.729 323.863 360.764 324.157 360.833 324.504C360.902 324.816 360.989 325.128 361.093 325.44C361.232 325.717 361.405 325.96 361.613 326.168C361.821 326.376 362.064 326.48 362.341 326.48V327H357.297V324.14C356.777 324.903 356.014 325.648 355.009 326.376C354.004 327.104 352.704 327.468 351.109 327.468C349.098 327.468 347.504 327.121 346.325 326.428C345.146 325.735 344.245 324.851 343.621 323.776C342.997 322.701 342.598 321.54 342.425 320.292C342.252 319.009 342.165 317.813 342.165 316.704V309.268C342.165 308.956 342.148 308.661 342.113 308.384C342.113 308.072 342.044 307.795 341.905 307.552C341.801 307.309 341.628 307.119 341.385 306.98C341.142 306.807 340.796 306.72 340.345 306.72V306.252L345.597 304.588V317.848C345.597 320.483 346.169 322.424 347.313 323.672C348.457 324.92 349.861 325.544 351.525 325.544C352.426 325.544 353.224 325.353 353.917 324.972C354.645 324.556 355.252 324.071 355.737 323.516C356.257 322.961 356.638 322.389 356.881 321.8C357.158 321.211 357.297 320.725 357.297 320.344V309.268C357.297 308.956 357.28 308.661 357.245 308.384C357.245 308.072 357.176 307.795 357.037 307.552C356.933 307.309 356.76 307.119 356.517 306.98C356.274 306.807 355.928 306.72 355.477 306.72V306.252L360.729 304.588V323.62ZM378.534 304.796C380.406 304.796 382.018 305.108 383.37 305.732C384.757 306.356 385.901 307.188 386.802 308.228C387.704 309.268 388.38 310.464 388.83 311.816C389.281 313.133 389.506 314.485 389.506 315.872C389.506 317.293 389.281 318.697 388.83 320.084C388.38 321.436 387.686 322.667 386.75 323.776C385.849 324.851 384.722 325.717 383.37 326.376C382.018 327.035 380.458 327.364 378.69 327.364C377.373 327.364 376.177 327.104 375.102 326.584C374.028 326.029 373.178 325.371 372.554 324.608V327H367.458V326.48C367.701 326.48 367.926 326.376 368.134 326.168C368.342 325.96 368.516 325.717 368.654 325.44C368.828 325.163 368.949 324.868 369.018 324.556C369.088 324.209 369.122 323.897 369.122 323.62V297.1C369.122 296.511 369.036 295.956 368.862 295.436C368.689 294.916 368.186 294.639 367.354 294.604V294.084L372.554 292.472V307.344C373.352 306.547 374.288 305.923 375.362 305.472C376.472 305.021 377.529 304.796 378.534 304.796ZM379.054 325.596C380.302 325.527 381.377 325.232 382.278 324.712C383.18 324.157 383.925 323.464 384.514 322.632C385.138 321.8 385.589 320.864 385.866 319.824C386.178 318.749 386.334 317.657 386.334 316.548C386.334 315.3 386.161 314.087 385.814 312.908C385.468 311.729 384.948 310.672 384.254 309.736C383.596 308.8 382.764 308.055 381.758 307.5C380.753 306.911 379.609 306.616 378.326 306.616C377.598 306.616 376.888 306.789 376.194 307.136C375.501 307.448 374.877 307.881 374.322 308.436C373.802 308.956 373.369 309.597 373.022 310.36C372.71 311.088 372.554 311.868 372.554 312.7V319.148C372.554 320.153 372.745 321.055 373.126 321.852C373.508 322.649 374.01 323.325 374.634 323.88C375.258 324.435 375.952 324.868 376.714 325.18C377.512 325.457 378.292 325.596 379.054 325.596Z" fill="#595959"/>
<defs>
<clipPath id="clip0_3_192">
<rect width="89" height="138.511" fill="white" transform="translate(376.158 1) rotate(13)"/>
</clipPath>
</defs>
</svg>
